<svg width="32" height="32" xmlns="http://www.w3.org/2000/svg"><g><path d="M32 16c0 8.835-7.165 16-16 16S0 24.835 0 16 7.165 0 16 0s16 7.165 16 16z" fill="#4CAF50"/><path d="M16 0v16l6.4 3.2L15.326 32H16c8.842 0 16-7.158 16-16 0-8.842-7.158-16-16-16z" fill="#FFC107"/><path d="M32 16c0 8.835-7.165 16-16 16S0 24.835 0 16 7.165 0 16 0s16 7.165 16 16z" fill="#1AA260"/><path d="M16 0v16l6.4 3.2L15.326 32H16c8.842 0 16-7.158 16-16 0-8.842-7.158-16-16-16z" fill="#FFCE42"/><path d="M30.272 8.8H16v10.4l-2.4-.8L2.528 7.408h-.016A15.955 15.955 0 0 1 16 0c6.24 0 11.64 3.584 14.272 8.8z" fill="#DE5246"/><path fill="#BC4437" d="M2.526 7.411l7.075 11.89L13.6 18.4z"/><path fill="#178E53" d="M15.326 32l7.147-12.847L19.2 16.8z"/><path fill="#E7A837" d="M30.292 8.8H16l-1.263 3.664z"/><path d="M23.2 16c0 3.975-3.225 7.2-7.2 7.2A7.202 7.202 0 0 1 8.8 16c0-3.975 3.225-7.2 7.2-7.2s7.2 3.225 7.2 7.2z" fill="#FFF"/><path d="M21.6 16c0 3.094-2.506 5.6-5.6 5.6a5.599 5.599 0 0 1-5.6-5.6c0-3.094 2.506-5.6 5.6-5.6s5.6 2.506 5.6 5.6z" fill="#3C8BFD"/></g></svg>
