<?xml version="1.0" encoding="UTF-8" standalone="no"?>
<svg
   xmlns:dc="http://purl.org/dc/elements/1.1/"
   xmlns:cc="http://creativecommons.org/ns#"
   xmlns:rdf="http://www.w3.org/1999/02/22-rdf-syntax-ns#"
   xmlns:svg="http://www.w3.org/2000/svg"
   xmlns="http://www.w3.org/2000/svg"
   xmlns:sodipodi="http://sodipodi.sourceforge.net/DTD/sodipodi-0.dtd"
   xmlns:inkscape="http://www.inkscape.org/namespaces/inkscape"
   width="82"
   height="22"
   viewBox="0 0 82 22"
   version="1.1"
   id="svg18"
   sodipodi:docname="lustre-logo.svg"
   style="fill:none"
   inkscape:version="0.92.3 (2405546, 2018-03-11)">
  <metadata
     id="metadata24">
    <rdf:RDF>
      <cc:Work
         rdf:about="">
        <dc:format>image/svg+xml</dc:format>
        <dc:type
           rdf:resource="http://purl.org/dc/dcmitype/StillImage" />
        <dc:title></dc:title>
      </cc:Work>
    </rdf:RDF>
  </metadata>
  <defs
     id="defs22" />
  <sodipodi:namedview
     pagecolor="#ffffff"
     bordercolor="#666666"
     borderopacity="1"
     objecttolerance="10"
     gridtolerance="10"
     guidetolerance="10"
     inkscape:pageopacity="0"
     inkscape:pageshadow="2"
     inkscape:window-width="1920"
     inkscape:window-height="1176"
     id="namedview20"
     showgrid="false"
     inkscape:zoom="11.37037"
     inkscape:cx="58.564108"
     inkscape:cy="14.37565"
     inkscape:window-x="1920"
     inkscape:window-y="357"
     inkscape:window-maximized="1"
     inkscape:current-layer="svg18" />
  <path
     d="m 48.5813,8.71 c 1.02,0 1.5,0.795 1.53,1.335 l 1.86,-0.465 C 51.7613,8.545 50.9813,7 48.5363,7 c -2.025,0 -3.33,1.29 -3.33,2.955 0,1.9741 1.5301,2.4856 2.8544,2.9284 1.0102,0.3377 1.9006,0.6353 1.9006,1.5116 0,0.645 -0.45,1.035 -1.395,1.035 -1.185,0 -2.175,-0.765 -2.61,-1.185 l -1.215,1.5 c 0.51,0.48 1.815,1.365 3.765,1.365 2.37,0 3.525,-1.2 3.525,-2.76 0,-2.1758 -1.6399,-2.7221 -2.9936,-3.173 -0.9514,-0.3169 -1.7614,-0.5867 -1.7614,-1.342 0,-0.69 0.495,-1.125 1.305,-1.125 z m -18.7457,6.585 h 4.095 v 1.71 h -6.165 v -9.9 h 2.07 z m 11.0828,-8.19 h 2.07 v 6 c 0,2.43 -1.56,4.005 -3.87,4.005 -2.31,0 -3.885,-1.575 -3.885,-4.005 l 0.015,-6 h 2.07 v 5.985 c 0,1.41 0.75,2.22 1.8,2.22 1.065,0 1.8,-0.81 1.8,-2.205 z m 14.9657,9.9 v -8.19 h -2.775 v -1.71 h 7.62 v 1.71 h -2.775 v 8.19 z m 14.2029,0 -0.12,-1.59 c 0,0 -0.135,0.03 -0.285,0.03 -0.6412,0 -0.9264,-0.5362 -1.2253,-1.098 -0.2394,-0.4502 -0.4876,-0.9168 -0.9347,-1.137 1.185,-0.48 1.845,-1.41 1.845,-2.775 0,-2.31 -1.29,-3.33 -3.705,-3.33 h -3.18 v 9.9 h 2.07 v -3.42 h 0.39 c 0.9275,0 1.2697,0.7395 1.6406,1.5412 0.4389,0.9484 0.9179,1.9838 2.4544,1.9838 0.69,0 1.05,-0.105 1.05,-0.105 z m -5.535,-4.89 h 0.825 c 1.17,0 1.965,-0.6 1.965,-1.665 0,-1.125 -0.66,-1.71 -1.815,-1.71 h -0.975 z m 9.4028,-3.3 h 4.0801 v -1.71 h -6.1501 v 9.9 h 6.1501 v -1.71 h -4.0801 v -2.52 h 3.5101 v -1.62 h -3.5101 z"
     id="path2"
     inkscape:connector-curvature="0"
     style="clip-rule:evenodd;fill:#ffffff;fill-rule:evenodd" />
  <path
     d="m 5.26306,6.36465 c 0.78105,-0.78105 2.04738,-0.78105 2.82843,0 L 11.3913,9.66448 6.67728,14.3785 3.37744,11.0787 c -0.78104,-0.7811 -0.78104,-2.04738 0,-2.82843 z"
     id="path12"
     inkscape:connector-curvature="0"
     style="fill:#f47264" />
  <rect
     x="14.888735"
     y="-1.2209969"
     width="6.6666698"
     height="6.6666698"
     transform="rotate(45)"
     id="rect14"
     style="fill:#dd4c3d" />
  <path
     d="m 14.6911,6.36465 c 0.7811,-0.78105 2.0474,-0.78105 2.8285,0 l 1.8856,1.88562 c 0.781,0.78105 0.781,2.04733 0,2.82843 l -3.2999,3.2998 -4.714,-4.71402 z"
     id="path16"
     inkscape:connector-curvature="0"
     style="fill:#60aecf" />
</svg>
