<svg width="128" height="128" xmlns="http://www.w3.org/2000/svg"><g fill="none" fill-rule="evenodd"><path d="M102.4 64.91c0-2.837-.255-5.565-.727-8.183H64V72.2h21.527c-.927 5-3.745 9.236-7.982 12.073v10.036h12.928c7.563-6.964 11.927-17.218 11.927-29.4z" fill="#4285F4" fill-rule="nonzero"/><path d="M64 104c10.8 0 19.855-3.582 26.473-9.69L77.545 84.272c-3.581 2.4-8.163 3.818-13.545 3.818-10.418 0-19.236-7.036-22.382-16.491H28.255v10.364C34.836 95.036 48.364 104 64 104z" fill="#34A853" fill-rule="nonzero"/><path d="M41.618 71.6c-.8-2.4-1.254-4.964-1.254-7.6 0-2.636.454-5.2 1.254-7.6V46.036H28.255A39.984 39.984 0 0 0 24 64a39.984 39.984 0 0 0 4.255 17.964L41.618 71.6z" fill="#FBBC05" fill-rule="nonzero"/><path d="M64 39.91c5.873 0 11.145 2.017 15.29 5.98l11.474-11.472C83.836 27.964 74.782 24 64 24c-15.636 0-29.164 8.964-35.745 22.036L41.618 56.4C44.764 46.945 53.582 39.91 64 39.91z" fill="#EA4335" fill-rule="nonzero"/><path d="M24 24h80v80H24z"/></g></svg>